<?xml version="1.0" encoding="UTF-8" standalone="no"?>
<!DOCTYPE svg PUBLIC "-//W3C//DTD SVG 1.1//EN" "http://www.w3.org/Graphics/SVG/1.1/DTD/svg11.dtd">
<svg width="100%" height="100%" viewBox="0 0 602 339" version="1.1" xmlns="http://www.w3.org/2000/svg" xmlns:xlink="http://www.w3.org/1999/xlink" xml:space="preserve" xmlns:serif="http://www.serif.com/" style="fill-rule:evenodd;clip-rule:evenodd;stroke-linejoin:round;stroke-miterlimit:2;">
    <g transform="matrix(1,0,0,1,-3647.77,-416.452)">
        <g transform="matrix(1,0,0,1,3352.49,0)">
            <g transform="matrix(1.57883,0,0,1.57883,-32.3775,-273.724)">
                <g transform="matrix(0.633379,0,0,0.633379,20.5072,173.371)">
                    <clipPath id="_clip1">
                        <rect x="605.299" y="416.444" width="280.552" height="162.039"/>
                    </clipPath>
                    <g clip-path="url(#_clip1)">
                        <g transform="matrix(0.630784,-0.458291,0.458291,0.630784,106.903,677.788)">
                            <clipPath id="_clip2">
                                <path d="M921.61,346.565L609.785,245.247L644.769,137.578L956.594,238.897L921.61,346.565Z"/>
                            </clipPath>
                            <g clip-path="url(#_clip2)">
                                <g opacity="0.4">
                                    <rect x="609.785" y="245.247" width="298.009" height="145.751" style="fill:rgb(239,178,182);"/>
                                    <g>
                                        <clipPath id="_clip3">
                                            <rect x="609.785" y="245.247" width="298.009" height="145.751"/>
                                        </clipPath>
                                        <g clip-path="url(#_clip3)">
                                            <g>
                                                <g transform="matrix(1.84917,0,0,3.05153,-970.051,-440.315)">
                                                    <path d="M906.23,248.001L917.794,256.279L906.23,264.558L894.666,256.279L906.23,248.001Z" style="fill:rgb(164,44,67);"/>
                                                </g>
                                                <g transform="matrix(1.84917,0,0,3.05153,-970.051,-440.315)">
                                                    <path d="M906.23,246.042L920.531,256.279L906.098,266.422L891.93,256.279L906.23,246.042ZM906.23,248.001L894.666,256.279L906.23,264.558L917.794,256.279L906.23,248.001Z" style="fill:rgb(164,44,67);fill-opacity:0.4;"/>
                                                </g>
                                            </g>
                                            <g>
                                                <g transform="matrix(1.0945,0,0,1.02819,-84.5588,-6.79496)">
                                                    <path d="M906.23,248.001L917.794,256.279L906.23,264.558L894.666,256.279L906.23,248.001Z" style="fill:rgb(164,44,67);"/>
                                                </g>
                                                <g transform="matrix(0.572506,0,0,0.537821,382.59,129.296)">
                                                    <path d="M906.23,248.001L917.794,256.279L906.23,264.558L894.666,256.279L906.23,248.001Z" style="fill:rgb(164,44,67);"/>
                                                </g>
                                                <g transform="matrix(1.0945,0,0,1.02819,-84.5588,14.1381)">
                                                    <path d="M906.23,248.001L917.794,256.279L906.23,264.558L894.666,256.279L906.23,248.001Z" style="fill:rgb(164,44,67);"/>
                                                </g>
                                                <g transform="matrix(0.572506,0,0,0.537821,382.59,150.229)">
                                                    <path d="M906.23,248.001L917.794,256.279L906.23,264.558L894.666,256.279L906.23,248.001Z" style="fill:rgb(164,44,67);"/>
                                                </g>
                                                <g transform="matrix(1.0945,0,0,1.02819,-84.5588,35.1915)">
                                                    <path d="M906.23,248.001L917.794,256.279L906.23,264.558L894.666,256.279L906.23,248.001Z" style="fill:rgb(164,44,67);"/>
                                                </g>
                                                <g transform="matrix(0.572506,0,0,0.537821,382.59,171.283)">
                                                    <path d="M906.23,248.001L917.794,256.279L906.23,264.558L894.666,256.279L906.23,248.001Z" style="fill:rgb(164,44,67);"/>
                                                </g>
                                                <g transform="matrix(1.0945,0,0,1.02819,-84.5588,55.6433)">
                                                    <path d="M906.23,248.001L917.794,256.279L906.23,264.558L894.666,256.279L906.23,248.001Z" style="fill:rgb(164,44,67);"/>
                                                </g>
                                                <g transform="matrix(0.572506,0,0,0.537821,382.59,191.734)">
                                                    <path d="M906.23,248.001L917.794,256.279L906.23,264.558L894.666,256.279L906.23,248.001Z" style="fill:rgb(164,44,67);"/>
                                                </g>
                                                <g transform="matrix(1.0945,0,0,1.02819,-84.5588,76.6967)">
                                                    <path d="M906.23,248.001L917.794,256.279L906.23,264.558L894.666,256.279L906.23,248.001Z" style="fill:rgb(164,44,67);"/>
                                                </g>
                                                <g transform="matrix(0.572506,0,0,0.537821,382.59,212.788)">
                                                    <path d="M906.23,248.001L917.794,256.279L906.23,264.558L894.666,256.279L906.23,248.001Z" style="fill:rgb(164,44,67);"/>
                                                </g>
                                                <g transform="matrix(1.0945,0,0,1.02819,-84.5588,97.3891)">
                                                    <path d="M906.23,248.001L917.794,256.279L906.23,264.558L894.666,256.279L906.23,248.001Z" style="fill:rgb(164,44,67);"/>
                                                </g>
                                                <g transform="matrix(0.572506,0,0,0.537821,382.59,233.48)">
                                                    <path d="M906.23,248.001L917.794,256.279L906.23,264.558L894.666,256.279L906.23,248.001Z" style="fill:rgb(164,44,67);"/>
                                                </g>
                                                <g transform="matrix(0.351228,0,0,0.329949,577.569,177.518)">
                                                    <path d="M906.23,248.001L917.794,256.279L906.23,264.558L894.666,256.279L906.23,248.001Z" style="fill:rgb(164,44,67);"/>
                                                </g>
                                                <g transform="matrix(0.572506,0,0,-0.537821,382.59,384.123)">
                                                    <path d="M906.23,248.001L917.794,256.279L906.23,264.558L894.666,256.279L906.23,248.001Z" style="fill:rgb(164,44,67);"/>
                                                </g>
                                                <g transform="matrix(0.351228,0,0,-0.329949,577.569,335.901)">
                                                    <path d="M906.23,248.001L917.794,256.279L906.23,264.558L894.666,256.279L906.23,248.001Z" style="fill:rgb(164,44,67);"/>
                                                </g>
                                            </g>
                                            <g transform="matrix(-1,0,0,1,1517.25,0)">
                                                <g transform="matrix(1.0945,0,0,1.02819,-84.5588,-6.79496)">
                                                    <path d="M906.23,248.001L917.794,256.279L906.23,264.558L894.666,256.279L906.23,248.001Z" style="fill:rgb(164,44,67);"/>
                                                </g>
                                                <g transform="matrix(0.572506,0,0,0.537821,382.59,129.296)">
                                                    <path d="M906.23,248.001L917.794,256.279L906.23,264.558L894.666,256.279L906.23,248.001Z" style="fill:rgb(164,44,67);"/>
                                                </g>
                                                <g transform="matrix(1.0945,0,0,1.02819,-84.5588,14.1381)">
                                                    <path d="M906.23,248.001L917.794,256.279L906.23,264.558L894.666,256.279L906.23,248.001Z" style="fill:rgb(164,44,67);"/>
                                                </g>
                                                <g transform="matrix(0.572506,0,0,0.537821,382.59,150.229)">
                                                    <path d="M906.23,248.001L917.794,256.279L906.23,264.558L894.666,256.279L906.23,248.001Z" style="fill:rgb(164,44,67);"/>
                                                </g>
                                                <g transform="matrix(1.0945,0,0,1.02819,-84.5588,35.1915)">
                                                    <path d="M906.23,248.001L917.794,256.279L906.23,264.558L894.666,256.279L906.23,248.001Z" style="fill:rgb(164,44,67);"/>
                                                </g>
                                                <g transform="matrix(0.572506,0,0,0.537821,382.59,171.283)">
                                                    <path d="M906.23,248.001L917.794,256.279L906.23,264.558L894.666,256.279L906.23,248.001Z" style="fill:rgb(164,44,67);"/>
                                                </g>
                                                <g transform="matrix(1.0945,0,0,1.02819,-84.5588,55.6433)">
                                                    <path d="M906.23,248.001L917.794,256.279L906.23,264.558L894.666,256.279L906.23,248.001Z" style="fill:rgb(164,44,67);"/>
                                                </g>
                                                <g transform="matrix(0.572506,0,0,0.537821,382.59,191.734)">
                                                    <path d="M906.23,248.001L917.794,256.279L906.23,264.558L894.666,256.279L906.23,248.001Z" style="fill:rgb(164,44,67);"/>
                                                </g>
                                                <g transform="matrix(1.0945,0,0,1.02819,-84.5588,76.6967)">
                                                    <path d="M906.23,248.001L917.794,256.279L906.23,264.558L894.666,256.279L906.23,248.001Z" style="fill:rgb(164,44,67);"/>
                                                </g>
                                                <g transform="matrix(0.572506,0,0,0.537821,382.59,212.788)">
                                                    <path d="M906.23,248.001L917.794,256.279L906.23,264.558L894.666,256.279L906.23,248.001Z" style="fill:rgb(164,44,67);"/>
                                                </g>
                                                <g transform="matrix(1.0945,0,0,1.02819,-84.5588,97.3891)">
                                                    <path d="M906.23,248.001L917.794,256.279L906.23,264.558L894.666,256.279L906.23,248.001Z" style="fill:rgb(164,44,67);"/>
                                                </g>
                                                <g transform="matrix(0.351228,0,0,0.329949,577.569,177.518)">
                                                    <path d="M906.23,248.001L917.794,256.279L906.23,264.558L894.666,256.279L906.23,248.001Z" style="fill:rgb(164,44,67);"/>
                                                </g>
                                                <g transform="matrix(0.572506,0,0,-0.537821,382.59,384.123)">
                                                    <path d="M906.23,248.001L917.794,256.279L906.23,264.558L894.666,256.279L906.23,248.001Z" style="fill:rgb(164,44,67);"/>
                                                </g>
                                                <g transform="matrix(0.351228,0,0,-0.329949,577.569,335.901)">
                                                    <path d="M906.23,248.001L917.794,256.279L906.23,264.558L894.666,256.279L906.23,248.001Z" style="fill:rgb(164,44,67);"/>
                                                </g>
                                            </g>
                                            <rect x="634.13" y="256.022" width="65.225" height="20.539" style="fill:rgb(164,44,67);"/>
                                            <g transform="matrix(0.555586,0,0,7.60109,334.491,-1703.12)">
                                                <rect x="634.13" y="256.022" width="65.225" height="20.539" style="fill:rgb(164,44,67);fill-opacity:0.3;"/>
                                            </g>
                                            <g transform="matrix(1.4253,0,0,7.60109,-179.306,-1703.12)">
                                                <path d="M699.355,260.609L709.779,262.378L710.599,263.249L708.412,263.813L707.455,265.043L700.211,266.453L699.355,266.583L699.355,276.562L634.13,276.562L634.13,256.022L699.355,256.022L699.355,260.609Z" style="fill:rgb(164,44,67);fill-opacity:0.2;"/>
                                            </g>
                                            <path d="M832.341,291.242L811.885,272.735L789.482,271.566L781.105,277.215L764.741,277.215L753.636,275.072L738.441,286.566L737.077,306.437L748.766,326.308L744.09,334.685L746.233,337.802L745.844,346.179L747.207,360.4L750.714,372.674L756.753,377.934L763.766,377.739L766.883,374.037L769.221,370.725L773.312,366.44L777.014,360.206L772.923,357.673L769.026,360.985L762.208,366.829L762.208,354.751L763.572,347.153L769.416,352.218L777.988,347.738L789.871,342.672L800.196,341.504L806.236,332.347L818.704,322.217L829.029,311.502L830.393,302.151L833.51,297.865L832.341,291.242Z" style="fill:rgb(164,44,67);fill-opacity:0.6;"/>
                                            <g>
                                                <g transform="matrix(2.0238,0,0,0.417124,-579.253,149.229)">
                                                    <rect x="634.13" y="256.022" width="65.225" height="20.539" style="fill:rgb(164,44,67);"/>
                                                </g>
                                                <g transform="matrix(2.0238,0,0,0.287597,-579.253,194.629)">
                                                    <rect x="634.13" y="256.022" width="65.225" height="20.539" style="fill:rgb(164,44,67);"/>
                                                </g>
                                                <g transform="matrix(2.0238,0,0,0.0414936,-579.253,254.976)">
                                                    <rect x="634.13" y="256.022" width="65.225" height="20.539" style="fill:rgb(164,44,67);"/>
                                                </g>
                                            </g>
                                            <g transform="matrix(1.31497,0,0,1.31497,-31.3442,21.5579)">
                                                <rect x="634.13" y="256.022" width="65.225" height="20.539" style="fill:rgb(164,44,67);"/>
                                            </g>
                                            <g transform="matrix(1.08235,0,0,0.266799,131.342,282.942)">
                                                <rect x="634.13" y="256.022" width="65.225" height="20.539" style="fill:rgb(164,44,67);"/>
                                            </g>
                                            <g opacity="0.5">
                                                <g transform="matrix(0.145568,0,0,0.865756,760.24,40.4048)">
                                                    <rect x="634.13" y="256.022" width="65.225" height="20.539" style="fill:rgb(164,44,67);"/>
                                                </g>
                                                <g transform="matrix(0.145568,0,0,0.865756,760.24,98.0204)">
                                                    <rect x="634.13" y="256.022" width="65.225" height="20.539" style="fill:rgb(164,44,67);"/>
                                                </g>
                                                <g transform="matrix(0.145568,0,0,0.865756,760.24,70.7504)">
                                                    <rect x="634.13" y="256.022" width="65.225" height="20.539" style="fill:rgb(164,44,67);"/>
                                                </g>
                                                <g transform="matrix(0.145568,0,0,0.865756,760.24,125.496)">
                                                    <rect x="634.13" y="256.022" width="65.225" height="20.539" style="fill:rgb(164,44,67);"/>
                                                </g>
                                            </g>
                                            <g>
                                                <path d="M626.094,364.362C625.732,364.628 625.222,364.551 624.956,364.189C624.689,363.827 624.767,363.316 625.129,363.05L633.344,357.008L641.554,363.249C641.911,363.521 641.981,364.033 641.709,364.39C641.437,364.748 640.926,364.818 640.568,364.546C640.568,364.546 633.328,359.041 633.328,359.041L626.094,364.362Z" style="fill:rgb(164,44,67);"/>
                                                <g transform="matrix(1,0,0,1,0,-4.43686)">
                                                    <path d="M626.094,364.362C625.732,364.628 625.222,364.551 624.956,364.189C624.689,363.827 624.767,363.316 625.129,363.05L633.344,357.008L641.554,363.249C641.911,363.521 641.981,364.033 641.709,364.39C641.437,364.748 640.926,364.818 640.568,364.546C640.568,364.546 633.328,359.041 633.328,359.041L626.094,364.362Z" style="fill:rgb(164,44,67);"/>
                                                </g>
                                                <g transform="matrix(1,0,0,1,0,-8.87373)">
                                                    <path d="M626.094,364.362C625.732,364.628 625.222,364.551 624.956,364.189C624.689,363.827 624.767,363.316 625.129,363.05L633.344,357.008L641.554,363.249C641.911,363.521 641.981,364.033 641.709,364.39C641.437,364.748 640.926,364.818 640.568,364.546C640.568,364.546 633.328,359.041 633.328,359.041L626.094,364.362Z" style="fill:rgb(164,44,67);"/>
                                                </g>
                                            </g>
                                        </g>
                                    </g>
                                </g>
                            </g>
                        </g>
                        <g transform="matrix(0.815838,-0.265082,0.265082,0.815838,41.444,514.588)">
                            <clipPath id="_clip4">
                                <path d="M921.44,346.51L609.785,245.247L640.941,149.359L952.596,250.622L921.44,346.51Z"/>
                            </clipPath>
                            <g clip-path="url(#_clip4)">
                                <g opacity="0.7">
                                    <rect x="609.785" y="245.247" width="298.009" height="145.751" style="fill:rgb(239,178,182);"/>
                                    <g>
                                        <clipPath id="_clip5">
                                            <rect x="609.785" y="245.247" width="298.009" height="145.751"/>
                                        </clipPath>
                                        <g clip-path="url(#_clip5)">
                                            <g>
                                                <g transform="matrix(1.84917,0,0,3.05153,-970.051,-440.315)">
                                                    <path d="M906.23,248.001L917.794,256.279L906.23,264.558L894.666,256.279L906.23,248.001Z" style="fill:rgb(164,44,67);"/>
                                                </g>
                                                <g transform="matrix(1.84917,0,0,3.05153,-970.051,-440.315)">
                                                    <path d="M906.23,246.042L920.531,256.279L906.098,266.422L891.93,256.279L906.23,246.042ZM906.23,248.001L894.666,256.279L906.23,264.558L917.794,256.279L906.23,248.001Z" style="fill:rgb(164,44,67);fill-opacity:0.4;"/>
                                                </g>
                                            </g>
                                            <g>
                                                <g transform="matrix(1.0945,0,0,1.02819,-84.5588,-6.79496)">
                                                    <path d="M906.23,248.001L917.794,256.279L906.23,264.558L894.666,256.279L906.23,248.001Z" style="fill:rgb(164,44,67);"/>
                                                </g>
                                                <g transform="matrix(0.572506,0,0,0.537821,382.59,129.296)">
                                                    <path d="M906.23,248.001L917.794,256.279L906.23,264.558L894.666,256.279L906.23,248.001Z" style="fill:rgb(164,44,67);"/>
                                                </g>
                                                <g transform="matrix(1.0945,0,0,1.02819,-84.5588,14.1381)">
                                                    <path d="M906.23,248.001L917.794,256.279L906.23,264.558L894.666,256.279L906.23,248.001Z" style="fill:rgb(164,44,67);"/>
                                                </g>
                                                <g transform="matrix(0.572506,0,0,0.537821,382.59,150.229)">
                                                    <path d="M906.23,248.001L917.794,256.279L906.23,264.558L894.666,256.279L906.23,248.001Z" style="fill:rgb(164,44,67);"/>
                                                </g>
                                                <g transform="matrix(1.0945,0,0,1.02819,-84.5588,35.1915)">
                                                    <path d="M906.23,248.001L917.794,256.279L906.23,264.558L894.666,256.279L906.23,248.001Z" style="fill:rgb(164,44,67);"/>
                                                </g>
                                                <g transform="matrix(0.572506,0,0,0.537821,382.59,171.283)">
                                                    <path d="M906.23,248.001L917.794,256.279L906.23,264.558L894.666,256.279L906.23,248.001Z" style="fill:rgb(164,44,67);"/>
                                                </g>
                                                <g transform="matrix(1.0945,0,0,1.02819,-84.5588,55.6433)">
                                                    <path d="M906.23,248.001L917.794,256.279L906.23,264.558L894.666,256.279L906.23,248.001Z" style="fill:rgb(164,44,67);"/>
                                                </g>
                                                <g transform="matrix(0.572506,0,0,0.537821,382.59,191.734)">
                                                    <path d="M906.23,248.001L917.794,256.279L906.23,264.558L894.666,256.279L906.23,248.001Z" style="fill:rgb(164,44,67);"/>
                                                </g>
                                                <g transform="matrix(1.0945,0,0,1.02819,-84.5588,76.6967)">
                                                    <path d="M906.23,248.001L917.794,256.279L906.23,264.558L894.666,256.279L906.23,248.001Z" style="fill:rgb(164,44,67);"/>
                                                </g>
                                                <g transform="matrix(0.572506,0,0,0.537821,382.59,212.788)">
                                                    <path d="M906.23,248.001L917.794,256.279L906.23,264.558L894.666,256.279L906.23,248.001Z" style="fill:rgb(164,44,67);"/>
                                                </g>
                                                <g transform="matrix(1.0945,0,0,1.02819,-84.5588,97.3891)">
                                                    <path d="M906.23,248.001L917.794,256.279L906.23,264.558L894.666,256.279L906.23,248.001Z" style="fill:rgb(164,44,67);"/>
                                                </g>
                                                <g transform="matrix(0.572506,0,0,0.537821,382.59,233.48)">
                                                    <path d="M906.23,248.001L917.794,256.279L906.23,264.558L894.666,256.279L906.23,248.001Z" style="fill:rgb(164,44,67);"/>
                                                </g>
                                                <g transform="matrix(0.351228,0,0,0.329949,577.569,177.518)">
                                                    <path d="M906.23,248.001L917.794,256.279L906.23,264.558L894.666,256.279L906.23,248.001Z" style="fill:rgb(164,44,67);"/>
                                                </g>
                                                <g transform="matrix(1.0945,0,0,1.02819,-84.5588,118.713)">
                                                    <path d="M906.23,248.001L917.794,256.279L906.23,264.558L894.666,256.279L906.23,248.001Z" style="fill:rgb(164,44,67);"/>
                                                </g>
                                                <g transform="matrix(0.572506,0,0,0.537821,382.59,254.804)">
                                                    <path d="M906.23,248.001L917.794,256.279L906.23,264.558L894.666,256.279L906.23,248.001Z" style="fill:rgb(164,44,67);"/>
                                                </g>
                                                <g transform="matrix(0.351228,0,0,0.329949,577.569,303.026)">
                                                    <path d="M906.23,248.001L917.794,256.279L906.23,264.558L894.666,256.279L906.23,248.001Z" style="fill:rgb(164,44,67);"/>
                                                </g>
                                                <g transform="matrix(0.572506,0,0,-0.537821,382.59,384.123)">
                                                    <path d="M906.23,248.001L917.794,256.279L906.23,264.558L894.666,256.279L906.23,248.001Z" style="fill:rgb(164,44,67);"/>
                                                </g>
                                                <g transform="matrix(0.351228,0,0,-0.329949,577.569,335.901)">
                                                    <path d="M906.23,248.001L917.794,256.279L906.23,264.558L894.666,256.279L906.23,248.001Z" style="fill:rgb(164,44,67);"/>
                                                </g>
                                            </g>
                                            <g transform="matrix(-1,0,0,1,1517.25,0)">
                                                <g transform="matrix(1.0945,0,0,1.02819,-84.5588,-6.79496)">
                                                    <path d="M906.23,248.001L917.794,256.279L906.23,264.558L894.666,256.279L906.23,248.001Z" style="fill:rgb(164,44,67);"/>
                                                </g>
                                                <g transform="matrix(0.572506,0,0,0.537821,382.59,129.296)">
                                                    <path d="M906.23,248.001L917.794,256.279L906.23,264.558L894.666,256.279L906.23,248.001Z" style="fill:rgb(164,44,67);"/>
                                                </g>
                                                <g transform="matrix(1.0945,0,0,1.02819,-84.5588,14.1381)">
                                                    <path d="M906.23,248.001L917.794,256.279L906.23,264.558L894.666,256.279L906.23,248.001Z" style="fill:rgb(164,44,67);"/>
                                                </g>
                                                <g transform="matrix(0.572506,0,0,0.537821,382.59,150.229)">
                                                    <path d="M906.23,248.001L917.794,256.279L906.23,264.558L894.666,256.279L906.23,248.001Z" style="fill:rgb(164,44,67);"/>
                                                </g>
                                                <g transform="matrix(1.0945,0,0,1.02819,-84.5588,35.1915)">
                                                    <path d="M906.23,248.001L917.794,256.279L906.23,264.558L894.666,256.279L906.23,248.001Z" style="fill:rgb(164,44,67);"/>
                                                </g>
                                                <g transform="matrix(0.572506,0,0,0.537821,382.59,171.283)">
                                                    <path d="M906.23,248.001L917.794,256.279L906.23,264.558L894.666,256.279L906.23,248.001Z" style="fill:rgb(164,44,67);"/>
                                                </g>
                                                <g transform="matrix(1.0945,0,0,1.02819,-84.5588,55.6433)">
                                                    <path d="M906.23,248.001L917.794,256.279L906.23,264.558L894.666,256.279L906.23,248.001Z" style="fill:rgb(164,44,67);"/>
                                                </g>
                                                <g transform="matrix(0.572506,0,0,0.537821,382.59,191.734)">
                                                    <path d="M906.23,248.001L917.794,256.279L906.23,264.558L894.666,256.279L906.23,248.001Z" style="fill:rgb(164,44,67);"/>
                                                </g>
                                                <g transform="matrix(1.0945,0,0,1.02819,-84.5588,76.6967)">
                                                    <path d="M906.23,248.001L917.794,256.279L906.23,264.558L894.666,256.279L906.23,248.001Z" style="fill:rgb(164,44,67);"/>
                                                </g>
                                                <g transform="matrix(0.572506,0,0,0.537821,382.59,212.788)">
                                                    <path d="M906.23,248.001L917.794,256.279L906.23,264.558L894.666,256.279L906.23,248.001Z" style="fill:rgb(164,44,67);"/>
                                                </g>
                                                <g transform="matrix(1.0945,0,0,1.02819,-84.5588,97.3891)">
                                                    <path d="M906.23,248.001L917.794,256.279L906.23,264.558L894.666,256.279L906.23,248.001Z" style="fill:rgb(164,44,67);"/>
                                                </g>
                                                <g transform="matrix(0.351228,0,0,0.329949,577.569,177.518)">
                                                    <path d="M906.23,248.001L917.794,256.279L906.23,264.558L894.666,256.279L906.23,248.001Z" style="fill:rgb(164,44,67);"/>
                                                </g>
                                                <g transform="matrix(0.572506,0,0,-0.537821,382.59,384.123)">
                                                    <path d="M906.23,248.001L917.794,256.279L906.23,264.558L894.666,256.279L906.23,248.001Z" style="fill:rgb(164,44,67);"/>
                                                </g>
                                                <g transform="matrix(0.351228,0,0,-0.329949,577.569,335.901)">
                                                    <path d="M906.23,248.001L917.794,256.279L906.23,264.558L894.666,256.279L906.23,248.001Z" style="fill:rgb(164,44,67);"/>
                                                </g>
                                            </g>
                                            <rect x="634.13" y="256.022" width="65.225" height="20.539" style="fill:rgb(164,44,67);"/>
                                            <g transform="matrix(0.555586,0,0,7.60109,334.491,-1703.12)">
                                                <rect x="634.13" y="256.022" width="65.225" height="20.539" style="fill:rgb(164,44,67);fill-opacity:0.3;"/>
                                            </g>
                                            <g transform="matrix(1.4253,0,0,7.60109,-179.306,-1703.12)">
                                                <path d="M699.355,260.609L709.779,262.378L710.599,263.249L708.412,263.813L707.455,265.043L700.211,266.453L699.355,266.583L699.355,276.562L634.13,276.562L634.13,256.022L699.355,256.022L699.355,260.609Z" style="fill:rgb(164,44,67);fill-opacity:0.2;"/>
                                            </g>
                                            <path d="M832.341,291.242L811.885,272.735L789.482,271.566L781.105,277.215L764.741,277.215L753.636,275.072L738.441,286.566L737.077,306.437L748.766,326.308L744.09,334.685L746.233,337.802L745.844,346.179L747.207,360.4L750.714,372.674L756.753,377.934L763.766,377.739L766.883,374.037L769.221,370.725L773.312,366.44L777.014,360.206L772.923,357.673L769.026,360.985L762.208,366.829L762.208,354.751L763.572,347.153L769.416,352.218L777.988,347.738L789.871,342.672L800.196,341.504L806.236,332.347L818.704,322.217L829.029,311.502L830.393,302.151L833.51,297.865L832.341,291.242Z" style="fill:rgb(164,44,67);fill-opacity:0.6;"/>
                                            <g>
                                                <g transform="matrix(2.0238,0,0,0.417124,-579.253,149.229)">
                                                    <rect x="634.13" y="256.022" width="65.225" height="20.539" style="fill:rgb(164,44,67);"/>
                                                </g>
                                                <g transform="matrix(2.0238,0,0,0.287597,-579.253,194.629)">
                                                    <rect x="634.13" y="256.022" width="65.225" height="20.539" style="fill:rgb(164,44,67);"/>
                                                </g>
                                                <g transform="matrix(2.0238,0,0,0.0414936,-579.253,254.976)">
                                                    <rect x="634.13" y="256.022" width="65.225" height="20.539" style="fill:rgb(164,44,67);"/>
                                                </g>
                                            </g>
                                            <g transform="matrix(1.31497,0,0,1.31497,-31.3442,21.5579)">
                                                <rect x="634.13" y="256.022" width="65.225" height="20.539" style="fill:rgb(164,44,67);"/>
                                            </g>
                                            <g transform="matrix(1.08235,0,0,0.266799,131.342,282.942)">
                                                <rect x="634.13" y="256.022" width="65.225" height="20.539" style="fill:rgb(164,44,67);"/>
                                            </g>
                                            <g opacity="0.5">
                                                <g transform="matrix(0.145568,0,0,0.865756,760.24,40.4048)">
                                                    <rect x="634.13" y="256.022" width="65.225" height="20.539" style="fill:rgb(164,44,67);"/>
                                                </g>
                                                <g transform="matrix(0.145568,0,0,0.865756,760.24,98.0204)">
                                                    <rect x="634.13" y="256.022" width="65.225" height="20.539" style="fill:rgb(164,44,67);"/>
                                                </g>
                                                <g transform="matrix(0.145568,0,0,0.865756,760.24,70.7504)">
                                                    <rect x="634.13" y="256.022" width="65.225" height="20.539" style="fill:rgb(164,44,67);"/>
                                                </g>
                                                <g transform="matrix(0.145568,0,0,0.865756,760.24,125.496)">
                                                    <rect x="634.13" y="256.022" width="65.225" height="20.539" style="fill:rgb(164,44,67);"/>
                                                </g>
                                            </g>
                                            <g>
                                                <path d="M626.094,364.362C625.732,364.628 625.222,364.551 624.956,364.189C624.689,363.827 624.767,363.316 625.129,363.05L633.344,357.008L641.554,363.249C641.911,363.521 641.981,364.033 641.709,364.39C641.437,364.748 640.926,364.818 640.568,364.546C640.568,364.546 633.328,359.041 633.328,359.041L626.094,364.362Z" style="fill:rgb(164,44,67);"/>
                                                <g transform="matrix(1,0,0,1,0,-4.43686)">
                                                    <path d="M626.094,364.362C625.732,364.628 625.222,364.551 624.956,364.189C624.689,363.827 624.767,363.316 625.129,363.05L633.344,357.008L641.554,363.249C641.911,363.521 641.981,364.033 641.709,364.39C641.437,364.748 640.926,364.818 640.568,364.546C640.568,364.546 633.328,359.041 633.328,359.041L626.094,364.362Z" style="fill:rgb(164,44,67);"/>
                                                </g>
                                                <g transform="matrix(1,0,0,1,0,-8.87373)">
                                                    <path d="M626.094,364.362C625.732,364.628 625.222,364.551 624.956,364.189C624.689,363.827 624.767,363.316 625.129,363.05L633.344,357.008L641.554,363.249C641.911,363.521 641.981,364.033 641.709,364.39C641.437,364.748 640.926,364.818 640.568,364.546C640.568,364.546 633.328,359.041 633.328,359.041L626.094,364.362Z" style="fill:rgb(164,44,67);"/>
                                                </g>
                                            </g>
                                        </g>
                                    </g>
                                </g>
                            </g>
                        </g>
                        <g transform="matrix(0.943267,0,0,0.943267,28.7502,321.693)">
                            <rect x="609.785" y="245.247" width="298.009" height="145.751" style="fill:rgb(239,178,182);"/>
                            <g>
                                <clipPath id="_clip6">
                                    <rect x="609.785" y="245.247" width="298.009" height="145.751"/>
                                </clipPath>
                                <g clip-path="url(#_clip6)">
                                    <g>
                                        <g transform="matrix(1.84917,0,0,3.05153,-970.051,-440.315)">
                                            <path d="M906.23,248.001L917.794,256.279L906.23,264.558L894.666,256.279L906.23,248.001Z" style="fill:rgb(164,44,67);"/>
                                        </g>
                                        <g transform="matrix(1.84917,0,0,3.05153,-970.051,-440.315)">
                                            <path d="M906.23,246.042L920.531,256.279L906.098,266.422L891.93,256.279L906.23,246.042ZM906.23,248.001L894.666,256.279L906.23,264.558L917.794,256.279L906.23,248.001Z" style="fill:rgb(164,44,67);fill-opacity:0.4;"/>
                                        </g>
                                    </g>
                                    <g>
                                        <g transform="matrix(1.0945,0,0,1.02819,-84.5588,-6.79496)">
                                            <path d="M906.23,248.001L917.794,256.279L906.23,264.558L894.666,256.279L906.23,248.001Z" style="fill:rgb(164,44,67);"/>
                                        </g>
                                        <g transform="matrix(0.572506,0,0,0.537821,382.59,129.296)">
                                            <path d="M906.23,248.001L917.794,256.279L906.23,264.558L894.666,256.279L906.23,248.001Z" style="fill:rgb(164,44,67);"/>
                                        </g>
                                        <g transform="matrix(1.0945,0,0,1.02819,-84.5588,14.1381)">
                                            <path d="M906.23,248.001L917.794,256.279L906.23,264.558L894.666,256.279L906.23,248.001Z" style="fill:rgb(164,44,67);"/>
                                        </g>
                                        <g transform="matrix(0.572506,0,0,0.537821,382.59,150.229)">
                                            <path d="M906.23,248.001L917.794,256.279L906.23,264.558L894.666,256.279L906.23,248.001Z" style="fill:rgb(164,44,67);"/>
                                        </g>
                                        <g transform="matrix(1.0945,0,0,1.02819,-84.5588,35.1915)">
                                            <path d="M906.23,248.001L917.794,256.279L906.23,264.558L894.666,256.279L906.23,248.001Z" style="fill:rgb(164,44,67);"/>
                                        </g>
                                        <g transform="matrix(0.572506,0,0,0.537821,382.59,171.283)">
                                            <path d="M906.23,248.001L917.794,256.279L906.23,264.558L894.666,256.279L906.23,248.001Z" style="fill:rgb(164,44,67);"/>
                                        </g>
                                        <g transform="matrix(1.0945,0,0,1.02819,-84.5588,55.6433)">
                                            <path d="M906.23,248.001L917.794,256.279L906.23,264.558L894.666,256.279L906.23,248.001Z" style="fill:rgb(164,44,67);"/>
                                        </g>
                                        <g transform="matrix(0.572506,0,0,0.537821,382.59,191.734)">
                                            <path d="M906.23,248.001L917.794,256.279L906.23,264.558L894.666,256.279L906.23,248.001Z" style="fill:rgb(164,44,67);"/>
                                        </g>
                                        <g transform="matrix(1.0945,0,0,1.02819,-84.5588,76.6967)">
                                            <path d="M906.23,248.001L917.794,256.279L906.23,264.558L894.666,256.279L906.23,248.001Z" style="fill:rgb(164,44,67);"/>
                                        </g>
                                        <g transform="matrix(0.572506,0,0,0.537821,382.59,212.788)">
                                            <path d="M906.23,248.001L917.794,256.279L906.23,264.558L894.666,256.279L906.23,248.001Z" style="fill:rgb(164,44,67);"/>
                                        </g>
                                        <g transform="matrix(1.0945,0,0,1.02819,-84.5588,97.3891)">
                                            <path d="M906.23,248.001L917.794,256.279L906.23,264.558L894.666,256.279L906.23,248.001Z" style="fill:rgb(164,44,67);"/>
                                        </g>
                                        <g transform="matrix(0.572506,0,0,0.537821,382.59,233.48)">
                                            <path d="M906.23,248.001L917.794,256.279L906.23,264.558L894.666,256.279L906.23,248.001Z" style="fill:rgb(164,44,67);"/>
                                        </g>
                                        <g transform="matrix(0.351228,0,0,0.329949,577.569,177.518)">
                                            <path d="M906.23,248.001L917.794,256.279L906.23,264.558L894.666,256.279L906.23,248.001Z" style="fill:rgb(164,44,67);"/>
                                        </g>
                                        <g transform="matrix(1.0945,0,0,1.02819,-84.5588,118.713)">
                                            <path d="M906.23,248.001L917.794,256.279L906.23,264.558L894.666,256.279L906.23,248.001Z" style="fill:rgb(164,44,67);"/>
                                        </g>
                                        <g transform="matrix(0.572506,0,0,0.537821,382.59,254.804)">
                                            <path d="M906.23,248.001L917.794,256.279L906.23,264.558L894.666,256.279L906.23,248.001Z" style="fill:rgb(164,44,67);"/>
                                        </g>
                                        <g transform="matrix(0.351228,0,0,0.329949,577.569,303.026)">
                                            <path d="M906.23,248.001L917.794,256.279L906.23,264.558L894.666,256.279L906.23,248.001Z" style="fill:rgb(164,44,67);"/>
                                        </g>
                                        <g transform="matrix(0.572506,0,0,-0.537821,382.59,384.123)">
                                            <path d="M906.23,248.001L917.794,256.279L906.23,264.558L894.666,256.279L906.23,248.001Z" style="fill:rgb(164,44,67);"/>
                                        </g>
                                        <g transform="matrix(0.351228,0,0,-0.329949,577.569,335.901)">
                                            <path d="M906.23,248.001L917.794,256.279L906.23,264.558L894.666,256.279L906.23,248.001Z" style="fill:rgb(164,44,67);"/>
                                        </g>
                                    </g>
                                    <g transform="matrix(-1,0,0,1,1517.25,0)">
                                        <g transform="matrix(1.0945,0,0,1.02819,-84.5588,-6.79496)">
                                            <path d="M906.23,248.001L917.794,256.279L906.23,264.558L894.666,256.279L906.23,248.001Z" style="fill:rgb(164,44,67);"/>
                                        </g>
                                        <g transform="matrix(0.572506,0,0,0.537821,382.59,129.296)">
                                            <path d="M906.23,248.001L917.794,256.279L906.23,264.558L894.666,256.279L906.23,248.001Z" style="fill:rgb(164,44,67);"/>
                                        </g>
                                        <g transform="matrix(1.0945,0,0,1.02819,-84.5588,14.1381)">
                                            <path d="M906.23,248.001L917.794,256.279L906.23,264.558L894.666,256.279L906.23,248.001Z" style="fill:rgb(164,44,67);"/>
                                        </g>
                                        <g transform="matrix(0.572506,0,0,0.537821,382.59,150.229)">
                                            <path d="M906.23,248.001L917.794,256.279L906.23,264.558L894.666,256.279L906.23,248.001Z" style="fill:rgb(164,44,67);"/>
                                        </g>
                                        <g transform="matrix(1.0945,0,0,1.02819,-84.5588,35.1915)">
                                            <path d="M906.23,248.001L917.794,256.279L906.23,264.558L894.666,256.279L906.23,248.001Z" style="fill:rgb(164,44,67);"/>
                                        </g>
                                        <g transform="matrix(0.572506,0,0,0.537821,382.59,171.283)">
                                            <path d="M906.23,248.001L917.794,256.279L906.23,264.558L894.666,256.279L906.23,248.001Z" style="fill:rgb(164,44,67);"/>
                                        </g>
                                        <g transform="matrix(1.0945,0,0,1.02819,-84.5588,55.6433)">
                                            <path d="M906.23,248.001L917.794,256.279L906.23,264.558L894.666,256.279L906.23,248.001Z" style="fill:rgb(164,44,67);"/>
                                        </g>
                                        <g transform="matrix(0.572506,0,0,0.537821,382.59,191.734)">
                                            <path d="M906.23,248.001L917.794,256.279L906.23,264.558L894.666,256.279L906.23,248.001Z" style="fill:rgb(164,44,67);"/>
                                        </g>
                                        <g transform="matrix(1.0945,0,0,1.02819,-84.5588,76.6967)">
                                            <path d="M906.23,248.001L917.794,256.279L906.23,264.558L894.666,256.279L906.23,248.001Z" style="fill:rgb(164,44,67);"/>
                                        </g>
                                        <g transform="matrix(0.572506,0,0,0.537821,382.59,212.788)">
                                            <path d="M906.23,248.001L917.794,256.279L906.23,264.558L894.666,256.279L906.23,248.001Z" style="fill:rgb(164,44,67);"/>
                                        </g>
                                        <g transform="matrix(1.0945,0,0,1.02819,-84.5588,97.3891)">
                                            <path d="M906.23,248.001L917.794,256.279L906.23,264.558L894.666,256.279L906.23,248.001Z" style="fill:rgb(164,44,67);"/>
                                        </g>
                                        <g transform="matrix(0.572506,0,0,0.537821,382.59,233.48)">
                                            <path d="M906.23,248.001L917.794,256.279L906.23,264.558L894.666,256.279L906.23,248.001Z" style="fill:rgb(164,44,67);"/>
                                        </g>
                                        <g transform="matrix(0.351228,0,0,0.329949,577.569,177.518)">
                                            <path d="M906.23,248.001L917.794,256.279L906.23,264.558L894.666,256.279L906.23,248.001Z" style="fill:rgb(164,44,67);"/>
                                        </g>
                                        <g transform="matrix(1.0945,0,0,1.02819,-84.5588,118.713)">
                                            <path d="M906.23,248.001L917.794,256.279L906.23,264.558L894.666,256.279L906.23,248.001Z" style="fill:rgb(164,44,67);"/>
                                        </g>
                                        <g transform="matrix(0.572506,0,0,0.537821,382.59,254.804)">
                                            <path d="M906.23,248.001L917.794,256.279L906.23,264.558L894.666,256.279L906.23,248.001Z" style="fill:rgb(164,44,67);"/>
                                        </g>
                                        <g transform="matrix(0.351228,0,0,0.329949,577.569,303.026)">
                                            <path d="M906.23,248.001L917.794,256.279L906.23,264.558L894.666,256.279L906.23,248.001Z" style="fill:rgb(164,44,67);"/>
                                        </g>
                                        <g transform="matrix(0.572506,0,0,-0.537821,382.59,384.123)">
                                            <path d="M906.23,248.001L917.794,256.279L906.23,264.558L894.666,256.279L906.23,248.001Z" style="fill:rgb(164,44,67);"/>
                                        </g>
                                        <g transform="matrix(0.351228,0,0,-0.329949,577.569,335.901)">
                                            <path d="M906.23,248.001L917.794,256.279L906.23,264.558L894.666,256.279L906.23,248.001Z" style="fill:rgb(164,44,67);"/>
                                        </g>
                                    </g>
                                    <rect x="634.13" y="256.022" width="65.225" height="20.539" style="fill:rgb(164,44,67);"/>
                                    <g transform="matrix(0.555586,0,0,7.60109,334.491,-1703.12)">
                                        <rect x="634.13" y="256.022" width="65.225" height="20.539" style="fill:rgb(164,44,67);fill-opacity:0.3;"/>
                                    </g>
                                    <g transform="matrix(1.4253,0,0,7.60109,-179.306,-1703.12)">
                                        <path d="M699.355,260.609L709.779,262.378L710.599,263.249L708.412,263.813L707.455,265.043L700.211,266.453L699.355,266.583L699.355,276.562L634.13,276.562L634.13,256.022L699.355,256.022L699.355,260.609Z" style="fill:rgb(164,44,67);fill-opacity:0.2;"/>
                                    </g>
                                    <path d="M832.341,291.242L811.885,272.735L789.482,271.566L781.105,277.215L764.741,277.215L753.636,275.072L738.441,286.566L737.077,306.437L748.766,326.308L744.09,334.685L746.233,337.802L745.844,346.179L747.207,360.4L750.714,372.674L756.753,377.934L763.766,377.739L766.883,374.037L769.221,370.725L773.312,366.44L777.014,360.206L772.923,357.673L769.026,360.985L762.208,366.829L762.208,354.751L763.572,347.153L769.416,352.218L777.988,347.738L789.871,342.672L800.196,341.504L806.236,332.347L818.704,322.217L829.029,311.502L830.393,302.151L833.51,297.865L832.341,291.242Z" style="fill:rgb(164,44,67);fill-opacity:0.6;"/>
                                    <g>
                                        <g transform="matrix(2.0238,0,0,0.417124,-579.253,149.229)">
                                            <rect x="634.13" y="256.022" width="65.225" height="20.539" style="fill:rgb(164,44,67);"/>
                                        </g>
                                        <g transform="matrix(2.0238,0,0,0.287597,-579.253,194.629)">
                                            <rect x="634.13" y="256.022" width="65.225" height="20.539" style="fill:rgb(164,44,67);"/>
                                        </g>
                                        <g transform="matrix(2.0238,0,0,0.0414936,-579.253,254.976)">
                                            <rect x="634.13" y="256.022" width="65.225" height="20.539" style="fill:rgb(164,44,67);"/>
                                        </g>
                                    </g>
                                    <g transform="matrix(1.31497,0,0,1.31497,-31.3442,21.5579)">
                                        <rect x="634.13" y="256.022" width="65.225" height="20.539" style="fill:rgb(164,44,67);"/>
                                    </g>
                                    <g transform="matrix(1.08235,0,0,0.266799,131.342,282.942)">
                                        <rect x="634.13" y="256.022" width="65.225" height="20.539" style="fill:rgb(164,44,67);"/>
                                    </g>
                                    <g opacity="0.5">
                                        <g transform="matrix(0.145568,0,0,0.865756,760.24,40.4048)">
                                            <rect x="634.13" y="256.022" width="65.225" height="20.539" style="fill:rgb(164,44,67);"/>
                                        </g>
                                        <g transform="matrix(0.145568,0,0,0.865756,760.24,98.0204)">
                                            <rect x="634.13" y="256.022" width="65.225" height="20.539" style="fill:rgb(164,44,67);"/>
                                        </g>
                                        <g transform="matrix(0.145568,0,0,0.865756,760.24,70.7504)">
                                            <rect x="634.13" y="256.022" width="65.225" height="20.539" style="fill:rgb(164,44,67);"/>
                                        </g>
                                        <g transform="matrix(0.145568,0,0,0.865756,760.24,125.496)">
                                            <rect x="634.13" y="256.022" width="65.225" height="20.539" style="fill:rgb(164,44,67);"/>
                                        </g>
                                    </g>
                                    <g>
                                        <path d="M626.094,364.362C625.732,364.628 625.222,364.551 624.956,364.189C624.689,363.827 624.767,363.316 625.129,363.05L633.344,357.008L641.554,363.249C641.911,363.521 641.981,364.033 641.709,364.39C641.437,364.748 640.926,364.818 640.568,364.546C640.568,364.546 633.328,359.041 633.328,359.041L626.094,364.362Z" style="fill:rgb(164,44,67);"/>
                                        <g transform="matrix(1,0,0,1,0,-4.43686)">
                                            <path d="M626.094,364.362C625.732,364.628 625.222,364.551 624.956,364.189C624.689,363.827 624.767,363.316 625.129,363.05L633.344,357.008L641.554,363.249C641.911,363.521 641.981,364.033 641.709,364.39C641.437,364.748 640.926,364.818 640.568,364.546C640.568,364.546 633.328,359.041 633.328,359.041L626.094,364.362Z" style="fill:rgb(164,44,67);"/>
                                        </g>
                                        <g transform="matrix(1,0,0,1,0,-8.87373)">
                                            <path d="M626.094,364.362C625.732,364.628 625.222,364.551 624.956,364.189C624.689,363.827 624.767,363.316 625.129,363.05L633.344,357.008L641.554,363.249C641.911,363.521 641.981,364.033 641.709,364.39C641.437,364.748 640.926,364.818 640.568,364.546C640.568,364.546 633.328,359.041 633.328,359.041L626.094,364.362Z" style="fill:rgb(164,44,67);"/>
                                        </g>
                                    </g>
                                </g>
                            </g>
                        </g>
                    </g>
                </g>
                <g transform="matrix(1,0,0,1,60.353,-68.7495)">
                    <path d="M212.972,607.372C217.435,611.072 220.972,615.644 223.584,621.086C226.196,626.528 227.503,632.243 227.503,638.229L227.503,680.025C227.503,692.651 222.659,702.991 212.972,711.046C205.353,717.25 196.809,720.352 187.339,720.352C177.652,720.352 169.108,717.25 161.706,711.046C152.019,702.991 147.176,692.651 147.176,680.025L147.176,638.229C147.176,632.243 148.482,626.528 151.094,621.086C153.706,615.644 157.244,611.072 161.706,607.372C168.999,601.168 177.543,598.066 187.339,598.066C197.026,598.066 205.57,601.168 212.972,607.372ZM169.217,698.311C174.223,703.318 180.264,705.821 187.339,705.821C194.414,705.821 200.455,703.318 205.462,698.311C210.468,693.304 212.972,687.209 212.972,680.025L212.972,638.229C212.972,631.154 210.468,625.141 205.462,620.188C200.455,615.236 194.414,612.759 187.339,612.759C180.264,612.759 174.223,615.236 169.217,620.188C164.21,625.141 161.706,631.154 161.706,638.229L161.706,680.025C161.706,687.209 164.21,693.304 169.217,698.311Z" style="fill:rgb(26,26,26);fill-rule:nonzero;"/>
                    <path d="M325.462,652.525C325.462,665.151 320.619,675.491 310.932,683.546C303.313,689.75 294.768,692.852 285.299,692.852C275.612,692.852 267.067,689.75 259.666,683.546L259.666,720.607L245.135,720.607L245.135,599.3L256.727,599.3L259.666,607.3C266.959,601.096 275.503,597.994 285.299,597.994C294.986,597.994 303.53,601.096 310.932,607.3C320.619,615.355 325.462,625.641 325.462,638.158L325.462,652.525ZM310.932,651.219L310.932,638.158C310.932,631.083 308.428,625.042 303.421,620.035C298.415,615.028 292.374,612.525 285.299,612.525C278.224,612.525 272.183,615.028 267.176,620.035C262.169,625.042 259.666,631.083 259.666,638.158L259.666,651.219C259.666,658.403 262.169,664.498 267.176,669.505C272.183,674.512 278.224,677.015 285.299,677.015C292.374,677.015 298.415,674.512 303.421,669.505C308.428,664.498 310.932,658.403 310.932,651.219Z" style="fill:rgb(26,26,26);fill-rule:nonzero;"/>
                    <path d="M423.422,665.494L423.422,680.025L357.626,680.025C357.626,687.971 360.102,694.257 365.054,698.882C370.007,703.508 376.02,705.821 383.095,705.821C387.667,705.821 391.912,704.678 395.83,702.393C399.748,700.107 402.85,697.059 405.136,693.25L421.136,693.25C418.633,700.433 414.551,706.365 408.891,711.046C401.272,717.25 392.674,720.352 383.095,720.352C372.755,720.352 363.531,716.733 355.422,709.495C347.313,702.257 343.258,693.957 343.258,684.597L343.095,682.148L343.095,666.801C343.095,660.596 344.401,654.583 347.013,648.76C349.626,642.937 353.163,638.175 357.626,634.474C364.809,628.487 373.299,625.494 383.095,625.494C393.218,625.494 401.816,628.542 408.891,634.637C413.136,638.229 416.565,642.773 419.177,648.27C421.789,653.767 423.204,659.508 423.422,665.494ZM357.626,665.494L408.891,665.494C408.456,657.984 406.143,651.862 401.953,647.127C397.762,642.392 391.476,640.025 383.095,640.025C375.041,640.025 368.864,642.42 364.565,647.209C360.265,651.998 357.952,658.093 357.626,665.494Z" style="fill:rgb(26,26,26);fill-rule:nonzero;"/>
                    <path d="M521.218,665.658L521.218,719.046L506.851,719.046L506.851,665.658C506.851,658.583 504.32,652.542 499.259,647.535C494.198,642.528 488.13,640.025 481.055,640.025C473.98,640.025 467.939,642.528 462.932,647.535C457.926,652.542 455.422,658.583 455.422,665.658L455.422,719.046L441.055,719.046L441.055,626.8L452.483,626.8L455.422,634.8C462.824,628.596 471.368,625.494 481.055,625.494C490.851,625.494 499.395,628.542 506.688,634.637C516.375,642.692 521.218,653.032 521.218,665.658Z" style="fill:rgb(26,26,26);fill-rule:nonzero;"/>
                </g>
            </g>
        </g>
    </g>
</svg>
